<svg width="5000" height="2555" viewBox="0 0 5000 2555" fill="none" xmlns="http://www.w3.org/2000/svg">
<path d="M2010.05 2547.02V1963.17H2240.43C2284.72 1963.17 2322.46 1971.63 2353.63 1988.55C2384.8 2005.27 2408.56 2028.55 2424.91 2058.39C2441.45 2088.04 2449.72 2122.25 2449.72 2161.02C2449.72 2199.79 2441.35 2234 2424.63 2263.65C2407.9 2293.3 2383.66 2316.39 2351.92 2332.92C2320.36 2349.46 2282.16 2357.72 2237.3 2357.72H2090.46V2258.8H2217.34C2241.1 2258.8 2260.68 2254.72 2276.07 2246.54C2291.66 2238.18 2303.26 2226.68 2310.86 2212.05C2318.65 2197.22 2322.55 2180.21 2322.55 2161.02C2322.55 2141.63 2318.65 2124.72 2310.86 2110.28C2303.26 2095.64 2291.66 2084.33 2276.07 2076.35C2260.49 2068.18 2240.72 2064.09 2216.77 2064.09H2133.51V2547.02H2010.05Z" fill="url(#paint0_linear_1677_2295)"/>
<path d="M3098.64 2255.1C3098.64 2318.76 3086.57 2372.93 3062.43 2417.59C3038.48 2462.25 3005.78 2496.37 2964.34 2519.94C2923.09 2543.31 2876.71 2555 2825.2 2555C2773.31 2555 2726.74 2543.22 2685.49 2519.65C2644.24 2496.08 2611.64 2461.97 2587.69 2417.31C2563.74 2372.64 2551.76 2318.57 2551.76 2255.1C2551.76 2191.43 2563.74 2137.26 2587.69 2092.6C2611.64 2047.94 2644.24 2013.92 2685.49 1990.54C2726.74 1966.98 2773.31 1955.19 2825.2 1955.19C2876.71 1955.19 2923.09 1966.98 2964.34 1990.54C3005.78 2013.92 3038.48 2047.94 3062.43 2092.6C3086.57 2137.26 3098.64 2191.43 3098.64 2255.1ZM2973.47 2255.1C2973.47 2213.85 2967.29 2179.07 2954.93 2150.76C2942.77 2122.44 2925.56 2100.96 2903.32 2086.33C2881.08 2071.69 2855.04 2064.38 2825.2 2064.38C2795.36 2064.38 2769.31 2071.69 2747.07 2086.33C2724.83 2100.96 2707.54 2122.44 2695.18 2150.76C2683.02 2179.07 2676.93 2213.85 2676.93 2255.1C2676.93 2296.34 2683.02 2331.12 2695.18 2359.44C2707.54 2387.75 2724.83 2409.23 2747.07 2423.86C2769.31 2438.5 2795.36 2445.81 2825.2 2445.81C2855.04 2445.81 2881.08 2438.5 2903.32 2423.86C2925.56 2409.23 2942.77 2387.75 2954.93 2359.44C2967.29 2331.12 2973.47 2296.34 2973.47 2255.1Z" fill="url(#paint1_linear_1677_2295)"/>
<path d="M3222.21 2547.02V1963.17H3345.67V2445.24H3596.01V2547.02H3222.21Z" fill="url(#paint2_linear_1677_2295)"/>
<path d="M3833.35 1963.17V2547.02H3709.89V1963.17H3833.35Z" fill="url(#paint3_linear_1677_2295)"/>
<path d="M4482.27 2167.58H4357.38C4355.1 2151.42 4350.44 2137.07 4343.41 2124.53C4336.38 2111.8 4327.35 2100.96 4316.32 2092.03C4305.3 2083.1 4292.56 2076.26 4278.12 2071.5C4263.86 2066.75 4248.37 2064.38 4231.64 2064.38C4201.42 2064.38 4175.09 2071.88 4152.66 2086.9C4130.23 2101.72 4112.84 2123.39 4100.48 2151.9C4088.13 2180.21 4081.95 2214.61 4081.95 2255.1C4081.95 2296.72 4088.13 2331.69 4100.48 2360.01C4113.03 2388.32 4130.52 2409.7 4152.95 2424.15C4175.38 2438.59 4201.32 2445.81 4230.79 2445.81C4247.32 2445.81 4262.62 2443.63 4276.69 2439.26C4290.95 2434.89 4303.59 2428.52 4314.61 2420.16C4325.64 2411.6 4334.76 2401.25 4341.99 2389.08C4349.4 2376.92 4354.53 2363.05 4357.38 2347.46L4482.27 2348.03C4479.04 2374.83 4470.96 2400.68 4458.03 2425.57C4445.3 2450.28 4428.09 2472.42 4406.42 2492C4384.94 2511.38 4359.28 2526.78 4329.44 2538.18C4299.79 2549.39 4266.24 2555 4228.79 2555C4176.71 2555 4130.14 2543.22 4089.08 2519.65C4048.21 2496.08 4015.89 2461.97 3992.13 2417.31C3968.56 2372.64 3956.78 2318.57 3956.78 2255.1C3956.78 2191.43 3968.75 2137.26 3992.7 2092.6C4016.65 2047.94 4049.16 2013.92 4090.22 1990.54C4131.28 1966.98 4177.47 1955.19 4228.79 1955.19C4262.62 1955.19 4293.99 1959.94 4322.88 1969.45C4351.96 1978.95 4377.72 1992.82 4400.15 2011.07C4422.58 2029.12 4440.83 2051.26 4454.9 2077.49C4469.15 2103.72 4478.28 2133.75 4482.27 2167.58Z" fill="url(#paint4_linear_1677_2295)"/>
<path d="M4602.92 2547.02V1963.17H4996.39V2064.95H4726.38V2204.07H4976.15V2305.84H4726.38V2445.24H4997.53V2547.02H4602.92Z" fill="url(#paint5_linear_1677_2295)"/>
<path d="M1232.81 921.987H1424.91V1154.23H291.315V921.987H968.939V577.838H745.175V839.644H481.303V577.838H299.759V345.591H1416.47V577.838H1232.81V921.987Z" fill="white"/>
<path d="M721.955 1751.74H987.938H1395.36V1983.99H582.63V2311.25H1129.37V2066.33H1395.36V2543.5H462.304C369.421 2543.5 316.647 2501.27 316.647 2412.59V1751.74H721.955Z" fill="white"/>
<path d="M0 1331.59H1714.11V1563.84H987.938L987.938 1751.74H721.955L721.955 1563.84H0V1331.59Z" fill="white"/>
<path d="M5000 1331.58V1563.83H1702.65V1331.58H4012.06V1105.67H4278.05V1331.58H5000Z" fill="white"/>
<path d="M3792.52 1105.65C3684.86 1105.65 3653.2 1071.87 3653.2 970.523V506.029H4354.04V341.344H3653.2V113.32H4480.7C4590.47 113.32 4620.02 142.879 4620.02 246.334V704.495H3919.18V873.402H4641.13V1105.65H3792.52Z" fill="white"/>
<path d="M2945.51 838.91C2889.93 896.618 2810.67 974.869 2747.48 1026.25L2571.3 828.739C2602.66 801.604 2673.4 725.447 2704.76 689.536C2790.07 585.793 2768.74 462.045 2682.8 369.423C2579.48 292.221 2470.23 295.706 2368 379.467C2266.97 473.246 2285.56 615.245 2369.85 706.086L2704.76 1077.14L2601.38 1191.49L2543.33 1254.42L2307.3 1062.36L2145.62 906.746C1937.99 672.456 1946.62 362.955 2156.83 149.361C2385.8 -66.0113 2732.08 -44.1451 2928 187.057C3110.89 415.148 3096.8 681.822 2945.51 838.91Z" fill="url(#paint6_linear_1677_2295)"/>
<defs>
<linearGradient id="paint0_linear_1677_2295" x1="2503.49" y1="2555" x2="2514.79" y2="0.0500007" gradientUnits="userSpaceOnUse">
<stop offset="0.0288462" stop-color="#1D70D5"/>
<stop offset="0.211538" stop-color="#00FFE3"/>
</linearGradient>
<linearGradient id="paint1_linear_1677_2295" x1="2503.49" y1="2555" x2="2514.79" y2="0.0500007" gradientUnits="userSpaceOnUse">
<stop offset="0.0288462" stop-color="#1D70D5"/>
<stop offset="0.211538" stop-color="#00FFE3"/>
</linearGradient>
<linearGradient id="paint2_linear_1677_2295" x1="2503.49" y1="2555" x2="2514.79" y2="0.0500007" gradientUnits="userSpaceOnUse">
<stop offset="0.0288462" stop-color="#1D70D5"/>
<stop offset="0.211538" stop-color="#00FFE3"/>
</linearGradient>
<linearGradient id="paint3_linear_1677_2295" x1="2503.49" y1="2555" x2="2514.79" y2="0.0500007" gradientUnits="userSpaceOnUse">
<stop offset="0.0288462" stop-color="#1D70D5"/>
<stop offset="0.211538" stop-color="#00FFE3"/>
</linearGradient>
<linearGradient id="paint4_linear_1677_2295" x1="2503.49" y1="2555" x2="2514.79" y2="0.0500007" gradientUnits="userSpaceOnUse">
<stop offset="0.0288462" stop-color="#1D70D5"/>
<stop offset="0.211538" stop-color="#00FFE3"/>
</linearGradient>
<linearGradient id="paint5_linear_1677_2295" x1="2503.49" y1="2555" x2="2514.79" y2="0.0500007" gradientUnits="userSpaceOnUse">
<stop offset="0.0288462" stop-color="#1D70D5"/>
<stop offset="0.211538" stop-color="#00FFE3"/>
</linearGradient>
<linearGradient id="paint6_linear_1677_2295" x1="2542.73" y1="-0.889487" x2="2542.73" y2="1252.89" gradientUnits="userSpaceOnUse">
<stop stop-color="#1D70D5"/>
<stop offset="1" stop-color="#00FFE3"/>
</linearGradient>
</defs>
</svg>
