<svg width="220" height="112" viewBox="0 0 220 112" fill="none" xmlns="http://www.w3.org/2000/svg">
<path d="M54.2437 40.5989H62.696V50.8256H12.8178V40.5989H42.6333V25.4448H32.7877V36.973H21.1773V25.4448H13.1894V15.218H62.3245V25.4448H54.2437V40.5989Z" fill="#314A5A"/>
<path d="M31.766 77.1362H43.4693H61.3957V87.3629H25.6357V101.773H49.6924V90.9888H61.3957V112H20.3414C16.2545 112 13.9325 110.141 13.9325 106.236V77.1362H31.766Z" fill="#314A5A"/>
<path d="M0 58.6352H75.421V68.8619H43.4693V77.1362H31.766L31.766 68.8619H0V58.6352Z" fill="#314A5A"/>
<path d="M220 58.635V68.8617H74.9167V58.635H176.531V48.6872H188.234V58.635H220Z" fill="#314A5A"/>
<path d="M166.871 48.6862C162.134 48.6862 160.741 47.1987 160.741 42.7362V22.2827H191.578V15.0311H160.741V4.99031H197.151C201.981 4.99031 203.281 6.29189 203.281 10.8474V31.0219H172.444V38.4595H204.21V48.6862H166.871Z" fill="#314A5A"/>
<path d="M129.604 36.9403C127.159 39.4814 123.671 42.9271 120.891 45.1897L113.139 36.4925C114.519 35.2976 117.632 31.9441 119.011 30.3628C122.765 25.7946 121.827 20.3456 118.045 16.2671C113.499 12.8676 108.692 13.021 104.194 16.7093C99.7483 20.8388 100.566 27.0915 104.275 31.0916L119.011 47.4303L114.462 52.4658L111.909 55.2366L101.523 46.7796L94.4091 39.9274C85.2733 29.6107 85.6531 15.9823 94.9022 6.57694C104.977 -2.90672 120.213 -1.94387 128.834 8.23684C136.881 18.2805 136.261 30.0232 129.604 36.9403Z" fill="url(#paint0_linear_1753_16)"/>
<defs>
<linearGradient id="paint0_linear_1753_16" x1="111.883" y1="-0.0401818" x2="111.883" y2="55.1682" gradientUnits="userSpaceOnUse">
<stop stop-color="#FFE387"/>
<stop offset="0.485577" stop-color="#FFAF46"/>
<stop offset="1" stop-color="#FF7700"/>
</linearGradient>
</defs>
</svg>
