<svg version="1.1" xmlns="http://www.w3.org/2000/svg" xmlns:xlink="http://www.w3.org/1999/xlink" width="512.000000pt" height="512.000000pt" viewBox="0,0,256,256"><g fill="#2b3a55" fill-rule="nonzero" stroke="none" stroke-width="1" stroke-linecap="butt" stroke-linejoin="miter" stroke-miterlimit="10" stroke-dasharray="" stroke-dashoffset="0" font-family="none" font-weight="none" font-size="none" text-anchor="none" style="mix-blend-mode: normal"><g transform="translate(0,-26.34158) scale(0.5,0.5)"><g transform="translate(0,512) scale(0.1,-0.1)"><path d="M2440,3634c-327,-66 -565,-277 -652,-581c-19,-64 -23,-103 -23,-213c0,-160 14,-223 79,-355c102,-207 278,-350 511,-417c105,-29 305,-32 405,-4c279,77 500,297 577,576c25,91 24,310 -1,400c-77,278 -298,500 -571,575c-59,16 -275,28 -325,19z"></path><path d="M2370,1783c-89,-7 -293,-45 -393,-73c-417,-117 -739,-367 -843,-655l-23,-64l92,-76c307,-253 672,-413 1069,-470c153,-21 424,-21 578,0c409,58 787,228 1102,497l57,49l-20,56c-127,370 -595,660 -1170,727c-121,14 -329,18 -449,9z"></path></g></g></g></svg>