<svg width="405" height="346" viewBox="0 0 405 346" fill="none" xmlns="http://www.w3.org/2000/svg">
<path d="M19.9189 155.098C22.6252 147.581 30.7803 143.483 38.4561 145.854C38.6989 145.929 38.9162 146 39.0205 146.034L39.168 146.082L39.3369 146.136C41.0634 146.699 42.7929 147.267 44.501 147.826L44.502 147.825L50.2939 149.721L50.3096 149.726C50.4833 149.782 50.9692 149.939 51.374 150.074L93.127 163.74H93.126L147.683 181.589L147.688 181.591C165.623 187.46 183.562 193.331 201.498 199.204L241.659 212.347L252.349 215.845L252.388 215.857C253.157 216.111 253.887 216.35 254.612 216.585H254.611C257.744 217.592 261.279 217.783 265.766 217.095L265.772 217.094C269.059 216.591 272.486 214.869 276.967 211.253C277.669 210.685 278.371 210.114 279.094 209.525C279.816 208.937 280.558 208.333 281.306 207.728C287.422 202.758 293.539 197.788 299.651 192.819L299.657 192.813C304.807 188.632 309.957 184.449 315.104 180.263L315.176 180.206C318.049 177.871 320.953 175.509 323.832 173.169C323.863 173.144 323.895 173.12 323.926 173.096C325.138 172.112 326.349 171.128 327.567 170.136L327.584 170.122C329.245 168.774 330.905 167.425 332.566 166.077C332.759 165.92 333.113 165.633 333.18 165.579C337.14 162.35 342.473 161.359 347.329 162.95C356.212 165.861 365.092 168.768 373.971 171.672C379.891 173.321 384.067 177.407 386.405 181.517C388.782 185.693 390.176 191.504 388.421 197.56C388.264 198.153 388.062 198.807 387.799 199.501C387.302 201.027 386.803 202.55 386.302 204.07C381.796 217.847 377.287 231.625 372.778 245.399L372.775 245.407C369.932 254.076 359.509 263.545 346.372 259.249C345.659 259.016 344.949 258.784 344.25 258.555C343.548 258.324 342.856 258.097 342.166 257.872L342.161 257.871C338.971 256.828 335.782 255.783 332.594 254.739C331.582 257.831 330.57 260.924 329.559 264.019L329.56 264.02C329.274 264.897 328.783 266.461 328.319 267.795L328.32 267.796C324.144 279.827 312.213 290.483 296.64 289.229V289.23C291.859 288.847 287.697 287.316 285.863 286.716L285.858 286.715C276.698 283.714 267.551 280.721 258.385 277.72V277.719C242.846 272.632 227.311 267.547 211.774 262.465L211.771 262.464C204.78 260.175 197.788 257.886 190.797 255.598C189.066 260.819 187.338 266.004 185.692 271.031L185.691 271.034C183.583 277.473 181.471 283.924 179.36 290.366L179.361 290.367C178.313 293.576 176.209 301.658 172.271 307.923L172.272 307.924C163.052 322.6 147.481 330.232 131.124 330.232H47.3535C30.3494 330.232 18.8095 316.357 18.1514 301.688C17.376 284.44 32.4372 271.798 47.3535 271.798H47.3545L123.981 271.804C127.731 260.346 131.483 248.879 135.234 237.415C124.118 233.778 113 230.14 101.887 226.503L101.884 226.502C87.5314 221.802 73.251 217.132 58.8926 212.431V212.43C51.7317 210.086 44.5753 207.746 37.4062 205.4C37.3949 205.397 37.3834 205.393 37.3721 205.39C35.8172 204.877 33.9071 204.185 31.8955 203.201C31.8912 203.199 31.8871 203.196 31.8828 203.194C17.49 196.14 12.209 179.537 16.3467 166.136C17.4674 162.501 18.6443 158.92 19.7939 155.458L19.9189 155.098Z" fill="#EE2323" stroke="white" stroke-width="30" stroke-linejoin="round"/>
<path d="M48.6484 30.2012C52.5263 18.7794 64.7492 12.5049 76.2578 15.9443L76.8096 16.1172L76.8174 16.1191L362.668 109.675L362.673 109.677L366.584 110.958L366.783 111.022L366.846 111.043L376.205 114.106H376.206C390.216 118.693 393.58 136.96 382.152 146.245C382.124 146.268 382.094 146.288 382.066 146.311L374.502 152.457C374.495 152.463 374.488 152.469 374.48 152.475L374.227 152.685C374.202 152.705 374.177 152.725 374.152 152.745L351.32 171.289C351.254 171.344 351.189 171.401 351.122 171.455L349.068 173.119L349.069 173.12L342.436 178.509L300.925 215.739C300.225 216.367 299.467 216.927 298.662 217.413C285.123 225.587 269.432 225.791 255.43 221.288C255.367 221.268 255.304 221.247 255.241 221.226L39.626 148.726C39.4639 148.671 39.3027 148.614 39.1426 148.554L35.1406 147.054C35.038 147.015 34.9357 146.975 34.834 146.935C29.8255 144.931 25.4845 141.647 22.5264 136.964C19.6529 132.414 18.7851 127.657 18.7021 123.765C18.5505 116.644 21.0744 109.846 22.0967 106.976L48.6475 30.2012H48.6484Z" fill="#EE2323" stroke="white" stroke-width="30" stroke-linejoin="round"/>
</svg>
