<svg width="421" height="207" viewBox="0 0 421 207" fill="none" xmlns="http://www.w3.org/2000/svg">
<path d="M248.906 128.093H257.663V139.366H205.986V128.093H236.877V111.387H226.676V124.096H214.647V111.387H206.371V100.113H257.278V111.387H248.906V128.093Z" fill="#EEF1F6"/>
<path d="M225.611 168.371H237.736H256.309V179.645H219.26V195.531H244.184V183.642H256.309V206.804H213.775C209.541 206.804 207.135 204.755 207.135 200.45V168.371H225.611Z" fill="#EEF1F6"/>
<path d="M192.705 147.977H270.845V159.25H254.293H237.742V168.372H225.616V159.25H192.705V147.977Z" fill="#EEF1F6"/>
<path d="M420.638 147.974V159.248H342.691H342.498H270.324V147.974H342.498H342.691H375.602V137.008H387.727V147.974H420.638Z" fill="#EEF1F6"/>
<path d="M387.532 137.01H375.407H365.592C360.684 137.01 359.24 135.37 359.24 130.45V107.903H391.189V99.9086H359.24V88.8398H396.963C401.967 88.8398 403.314 90.2747 403.314 95.2966V117.537H371.365V125.736H404.277V137.01H387.532Z" fill="#EEF1F6"/>
<path d="M326.977 124.06C324.444 126.861 320.831 130.66 317.95 133.154L309.919 123.566C311.348 122.249 314.573 118.552 316.003 116.809C319.891 111.773 318.919 105.766 315.001 101.27C310.291 97.5225 305.311 97.6916 300.651 101.758C296.045 106.31 296.893 113.203 300.735 117.612L316.003 135.624L311.29 141.175L308.644 144.229L297.884 134.906L290.513 127.353C281.048 115.98 281.442 100.956 291.024 90.5878C301.462 80.1332 317.248 81.1946 326.179 92.4176C334.517 103.49 333.874 116.435 326.977 124.06Z" fill="url(#paint0_linear_1473_16)"/>
<path d="M8.54 3.14828H12.355V5.35328C12.355 7.38328 12.0283 9.30828 11.375 11.1283C10.7217 12.9483 9.71833 14.5466 8.365 15.9233C7.01167 17.2766 5.285 18.2916 3.185 18.9683L0.875 15.2583C2.67167 14.6983 4.13 13.8933 5.25 12.8433C6.39333 11.7933 7.22167 10.6266 7.735 9.34328C8.27167 8.03661 8.54 6.70661 8.54 5.35328V3.14828ZM9.485 3.14828H13.265V5.35328C13.265 6.58995 13.5217 7.81495 14.035 9.02828C14.5483 10.2416 15.3533 11.3383 16.45 12.3183C17.57 13.2749 18.9933 14.0333 20.72 14.5933L18.48 18.2683C16.4267 17.6383 14.735 16.6699 13.405 15.3633C12.075 14.0566 11.0833 12.5399 10.43 10.8133C9.8 9.06328 9.485 7.24328 9.485 5.35328V3.14828ZM2.1 1.92328H19.6V5.63328H2.1V1.92328ZM22.26 0.0682808H26.915V18.8283H22.26V0.0682808ZM25.655 7.34828H31.22V11.1633H25.655V7.34828ZM5.845 20.0883H26.915V32.1283H5.845V20.0883ZM22.365 23.7283H10.43V28.4533H22.365V23.7283ZM41.5073 2.55328H45.3223V7.24328C45.3223 9.34328 45.1356 11.3616 44.7623 13.2983C44.3889 15.2116 43.8173 17.0083 43.0473 18.6883C42.3006 20.3449 41.3323 21.8149 40.1423 23.0983C38.9756 24.3583 37.5873 25.3616 35.9773 26.1083L33.2123 22.2583C34.6356 21.6283 35.8606 20.7999 36.8873 19.7733C37.9373 18.7233 38.8006 17.5333 39.4773 16.2033C40.1539 14.8499 40.6556 13.4149 40.9823 11.8983C41.3323 10.3816 41.5073 8.82995 41.5073 7.24328V2.55328ZM42.4173 2.55328H46.1973V7.24328C46.1973 8.75995 46.3606 10.2416 46.6873 11.6883C47.0139 13.1349 47.5039 14.4999 48.1573 15.7833C48.8339 17.0666 49.6739 18.2099 50.6773 19.2133C51.7039 20.1933 52.9056 20.9749 54.2823 21.5583L51.5873 25.3383C50.0239 24.6149 48.6589 23.6466 47.4923 22.4333C46.3489 21.2199 45.4039 19.8199 44.6573 18.2333C43.9106 16.6233 43.3506 14.8966 42.9773 13.0533C42.6039 11.1866 42.4173 9.24995 42.4173 7.24328V2.55328ZM55.8573 -0.00172037H60.5123V32.5133H55.8573V-0.00172037ZM74.3851 12.1433H75.9951C76.9051 12.1433 77.7451 12.1316 78.5151 12.1083C79.2851 12.0849 80.0435 12.0383 80.7901 11.9683C81.5368 11.8983 82.3185 11.7816 83.1351 11.6183L83.4851 15.1883C82.6218 15.3516 81.7935 15.4683 81.0001 15.5383C80.2068 15.6083 79.4135 15.6549 78.6201 15.6783C77.8268 15.7016 76.9518 15.7133 75.9951 15.7133H74.3851V12.1433ZM74.3851 1.60828H82.8201V5.21328H78.9701V14.5583H74.3851V1.60828ZM84.3951 12.1433H86.1451C87.5218 12.1433 88.6651 12.1316 89.5751 12.1083C90.5085 12.0849 91.3251 12.0383 92.0251 11.9683C92.7485 11.8749 93.4718 11.7466 94.1951 11.5833L94.5101 15.1533C93.7868 15.3166 93.0518 15.4449 92.3051 15.5383C91.5585 15.6083 90.7068 15.6549 89.7501 15.6783C88.7935 15.7016 87.5918 15.7133 86.1451 15.7133H84.3951V12.1433ZM84.3951 1.60828H93.4251V5.21328H88.9801V14.5583H84.3951V1.60828ZM78.6901 17.7783H101.37V26.5283H83.4501V30.2383H78.7601V23.1683H96.6801V21.3833H78.6901V17.7783ZM78.7601 28.4883H102.28V32.1283H78.7601V28.4883ZM96.7151 0.0682808H101.37V16.5183H96.7151V0.0682808ZM92.1651 6.64828H100.39V10.1133H92.1651V6.64828ZM114.982 2.27328C116.592 2.27328 118.027 2.75161 119.287 3.70828C120.571 4.64161 121.562 5.98328 122.262 7.73328C122.986 9.45995 123.347 11.5016 123.347 13.8583C123.347 16.2383 122.986 18.3033 122.262 20.0533C121.562 21.7799 120.571 23.1216 119.287 24.0783C118.027 25.0116 116.592 25.4783 114.982 25.4783C113.372 25.4783 111.937 25.0116 110.677 24.0783C109.417 23.1216 108.426 21.7799 107.702 20.0533C106.979 18.3033 106.617 16.2383 106.617 13.8583C106.617 11.5016 106.979 9.45995 107.702 7.73328C108.426 5.98328 109.417 4.64161 110.677 3.70828C111.937 2.75161 113.372 2.27328 114.982 2.27328ZM114.982 6.50828C114.212 6.50828 113.524 6.78828 112.917 7.34828C112.334 7.90828 111.879 8.73661 111.552 9.83328C111.226 10.9066 111.062 12.2483 111.062 13.8583C111.062 15.4449 111.226 16.7983 111.552 17.9183C111.879 19.0149 112.334 19.8433 112.917 20.4033C113.524 20.9633 114.212 21.2433 114.982 21.2433C115.799 21.2433 116.499 20.9633 117.082 20.4033C117.666 19.8433 118.121 19.0149 118.447 17.9183C118.774 16.7983 118.937 15.4449 118.937 13.8583C118.937 12.2483 118.774 10.9066 118.447 9.83328C118.121 8.73661 117.666 7.90828 117.082 7.34828C116.499 6.78828 115.799 6.50828 114.982 6.50828ZM128.667 -0.00172037H133.322V32.5133H128.667V-0.00172037ZM121.982 11.7233H130.627V15.4333H121.982V11.7233ZM160.865 0.0682808H165.52V32.4783H160.865V0.0682808ZM145.78 5.14328H149.455V8.04828C149.455 10.0083 149.268 11.9333 148.895 13.8233C148.545 15.6899 148.02 17.4516 147.32 19.1083C146.62 20.7416 145.733 22.1999 144.66 23.4833C143.61 24.7433 142.361 25.7699 140.915 26.5633L137.94 22.9933C139.27 22.3399 140.425 21.4766 141.405 20.4033C142.385 19.3299 143.201 18.1166 143.855 16.7633C144.508 15.4099 144.986 13.9983 145.29 12.5283C145.616 11.0349 145.78 9.54161 145.78 8.04828V5.14328ZM146.865 5.14328H150.505V8.04828C150.505 9.30828 150.668 10.6266 150.995 12.0033C151.321 13.3566 151.811 14.6866 152.465 15.9933C153.141 17.2999 153.97 18.4783 154.95 19.5283C155.93 20.5783 157.073 21.4533 158.38 22.1533L155.685 25.7233C154.238 24.9999 152.966 24.0083 151.87 22.7483C150.773 21.4883 149.851 20.0649 149.105 18.4783C148.381 16.8683 147.821 15.1649 147.425 13.3683C147.051 11.5716 146.865 9.79828 146.865 8.04828V5.14328ZM139.2 3.14828H157.015V6.89328H139.2V3.14828ZM155.65 8.92328H164.015V12.7733H155.65V8.92328ZM155.65 15.7133H164.015V19.5633H155.65V15.7133ZM185.903 19.7383H189.403V20.8233C189.403 22.4566 189.146 24.0083 188.633 25.4783C188.119 26.9483 187.326 28.2433 186.253 29.3633C185.203 30.5066 183.826 31.3816 182.123 31.9883L179.883 28.5933C181.306 28.1033 182.461 27.4499 183.348 26.6333C184.234 25.8166 184.876 24.9066 185.273 23.9033C185.693 22.8766 185.903 21.8499 185.903 20.8233V19.7383ZM187.058 19.7383H190.383V20.8233C190.383 21.8499 190.569 22.8883 190.943 23.9383C191.339 24.9649 191.934 25.9099 192.728 26.7733C193.544 27.6366 194.618 28.3366 195.948 28.8733L194.058 32.3383C192.354 31.6849 190.989 30.7516 189.963 29.5383C188.936 28.3483 188.189 26.9949 187.723 25.4783C187.279 23.9383 187.058 22.3866 187.058 20.8233V19.7383ZM197.698 19.7383H201.023V20.8233C201.023 22.3166 200.789 23.8216 200.323 25.3383C199.879 26.8549 199.144 28.2316 198.118 29.4683C197.114 30.7049 195.761 31.6616 194.058 32.3383L192.168 28.8733C193.474 28.2899 194.536 27.5549 195.353 26.6683C196.169 25.7583 196.764 24.8016 197.138 23.7983C197.511 22.7716 197.698 21.7799 197.698 20.8233V19.7383ZM198.783 19.7383H202.283V20.8233C202.283 21.9199 202.481 22.9816 202.878 24.0083C203.298 25.0349 203.951 25.9449 204.838 26.7383C205.724 27.5316 206.879 28.1499 208.303 28.5933L206.063 31.9883C204.359 31.4049 202.971 30.5533 201.898 29.4333C200.824 28.3366 200.031 27.0533 199.518 25.5833C199.028 24.0899 198.783 22.5033 198.783 20.8233V19.7383ZM200.883 0.0682808H205.538V18.4083H200.883V0.0682808ZM187.898 1.71328C189.578 1.71328 191.083 2.05161 192.413 2.72828C193.743 3.38161 194.793 4.29161 195.563 5.45828C196.333 6.62495 196.718 7.96661 196.718 9.48328C196.718 10.9999 196.333 12.3416 195.563 13.5083C194.793 14.6749 193.743 15.5966 192.413 16.2733C191.083 16.9266 189.578 17.2533 187.898 17.2533C186.218 17.2533 184.713 16.9266 183.383 16.2733C182.053 15.5966 181.003 14.6749 180.233 13.5083C179.463 12.3416 179.078 10.9999 179.078 9.48328C179.078 7.96661 179.463 6.62495 180.233 5.45828C181.003 4.29161 182.053 3.38161 183.383 2.72828C184.713 2.05161 186.218 1.71328 187.898 1.71328ZM187.898 5.56328C187.104 5.56328 186.381 5.72661 185.728 6.05328C185.074 6.35661 184.561 6.79995 184.188 7.38328C183.814 7.94328 183.628 8.64328 183.628 9.48328C183.628 10.2999 183.814 11.0116 184.188 11.6183C184.561 12.2016 185.074 12.6449 185.728 12.9483C186.381 13.2516 187.104 13.4033 187.898 13.4033C188.714 13.4033 189.438 13.2516 190.068 12.9483C190.721 12.6449 191.234 12.2016 191.608 11.6183C191.981 11.0116 192.168 10.2999 192.168 9.48328C192.168 8.64328 191.981 7.94328 191.608 7.38328C191.234 6.79995 190.721 6.35661 190.068 6.05328C189.438 5.72661 188.714 5.56328 187.898 5.56328ZM214.425 8.78328H236.895V12.4933H214.425V8.78328ZM210.82 15.8533H240.15V19.5633H210.82V15.8533ZM214.425 1.18828H219.08V10.6383H214.425V1.18828ZM214.145 28.0333H237.07V31.7783H214.145V28.0333ZM214.145 22.1183H218.8V29.0483H214.145V22.1183ZM8.715 44.5533H12.46V49.2433C12.46 51.2499 12.285 53.2099 11.935 55.1233C11.585 57.0133 11.0367 58.7749 10.29 60.4083C9.56667 62.0416 8.645 63.4999 7.525 64.7833C6.405 66.0433 5.08667 67.0466 3.57 67.7933L0.77 64.0483C2.14667 63.4183 3.325 62.5783 4.305 61.5283C5.30833 60.4783 6.13667 59.2883 6.79 57.9583C7.44333 56.6283 7.92167 55.2283 8.225 53.7583C8.55167 52.2649 8.715 50.7599 8.715 49.2433V44.5533ZM9.625 44.5533H13.37V49.2433C13.37 50.7133 13.51 52.1599 13.79 53.5833C14.0933 55.0066 14.5483 56.3599 15.155 57.6433C15.785 58.9033 16.5667 60.0349 17.5 61.0383C18.4333 62.0416 19.5533 62.8699 20.86 63.5233L18.025 67.2333C16.5783 66.4866 15.3183 65.5066 14.245 64.2933C13.195 63.0566 12.3317 61.6449 11.655 60.0583C10.9783 58.4483 10.465 56.7333 10.115 54.9133C9.78833 53.0699 9.625 51.1799 9.625 49.2433V44.5533ZM22.12 42.0683H26.81V74.4783H22.12V42.0683ZM25.795 54.5283H31.5V58.3783H25.795V54.5283ZM54.4573 42.0333H59.1123V61.4583H54.4573V42.0333ZM57.8173 49.5933H63.4173V53.4083H57.8173V49.5933ZM34.7873 56.4883H37.5173C39.6406 56.4883 41.5306 56.4649 43.1873 56.4183C44.8673 56.3716 46.4189 56.2783 47.8423 56.1383C49.2889 55.9749 50.7589 55.7649 52.2523 55.5083L52.6723 59.2183C51.1789 59.4983 49.6739 59.7199 48.1573 59.8833C46.6639 60.0233 45.0539 60.1166 43.3273 60.1633C41.6239 60.2099 39.6873 60.2333 37.5173 60.2333H34.7873V56.4883ZM34.7173 43.9583H49.5223V53.7233H39.3723V58.7633H34.7873V50.2583H44.9373V47.6683H34.7173V43.9583ZM48.4723 62.1583C50.7356 62.1583 52.6839 62.4033 54.3173 62.8933C55.9739 63.3833 57.2339 64.0833 58.0973 64.9933C58.9839 65.9033 59.4273 67.0116 59.4273 68.3183C59.4273 70.2549 58.4473 71.7599 56.4873 72.8333C54.5506 73.9299 51.8789 74.4783 48.4723 74.4783C46.2323 74.4783 44.2839 74.2333 42.6273 73.7433C40.9939 73.2766 39.7339 72.5766 38.8473 71.6433C37.9606 70.7099 37.5173 69.6016 37.5173 68.3183C37.5173 67.0116 37.9606 65.9033 38.8473 64.9933C39.7339 64.0833 40.9939 63.3833 42.6273 62.8933C44.2839 62.4033 46.2323 62.1583 48.4723 62.1583ZM48.4723 65.6933C47.0723 65.6933 45.8939 65.7866 44.9373 65.9733C44.0039 66.1599 43.2923 66.4516 42.8023 66.8483C42.3356 67.2449 42.1023 67.7349 42.1023 68.3183C42.1023 68.9249 42.3356 69.4266 42.8023 69.8233C43.2923 70.1966 44.0039 70.4766 44.9373 70.6633C45.8939 70.8499 47.0723 70.9433 48.4723 70.9433C49.8956 70.9433 51.0739 70.8499 52.0073 70.6633C52.9639 70.4766 53.6756 70.1966 54.1423 69.8233C54.6323 69.4266 54.8773 68.9249 54.8773 68.3183C54.8773 67.7349 54.6323 67.2449 54.1423 66.8483C53.6756 66.4516 52.9639 66.1599 52.0073 65.9733C51.0739 65.7866 49.8956 65.6933 48.4723 65.6933ZM86.5845 42.0683H91.2395V74.4783H86.5845V42.0683ZM90.1895 54.7033H95.8945V58.5533H90.1895V54.7033ZM65.6545 46.8283H84.5545V50.5383H65.6545V46.8283ZM75.1745 52.3933C76.7379 52.3933 78.1379 52.7316 79.3745 53.4083C80.6112 54.0616 81.5795 54.9599 82.2795 56.1033C83.0029 57.2466 83.3645 58.5766 83.3645 60.0933C83.3645 61.6099 83.0029 62.9516 82.2795 64.1183C81.5795 65.2616 80.6112 66.1716 79.3745 66.8483C78.1612 67.5016 76.7612 67.8283 75.1745 67.8283C73.6112 67.8283 72.1995 67.5016 70.9395 66.8483C69.7029 66.1716 68.7229 65.2616 67.9995 64.1183C67.2995 62.9516 66.9495 61.6099 66.9495 60.0933C66.9495 58.5766 67.2995 57.2466 67.9995 56.1033C68.7229 54.9599 69.7029 54.0616 70.9395 53.4083C72.1995 52.7316 73.6112 52.3933 75.1745 52.3933ZM75.1745 56.1733C74.4279 56.1733 73.7745 56.3249 73.2145 56.6283C72.6545 56.9316 72.2112 57.3749 71.8845 57.9583C71.5579 58.5416 71.3945 59.2533 71.3945 60.0933C71.3945 60.9099 71.5579 61.6216 71.8845 62.2283C72.2112 62.8116 72.6545 63.2666 73.2145 63.5933C73.7745 63.8966 74.4279 64.0483 75.1745 64.0483C75.8979 64.0483 76.5395 63.8966 77.0995 63.5933C77.6595 63.2666 78.1029 62.8116 78.4295 62.2283C78.7562 61.6216 78.9195 60.9099 78.9195 60.0933C78.9195 59.2533 78.7562 58.5416 78.4295 57.9583C78.1029 57.3749 77.6595 56.9316 77.0995 56.6283C76.5395 56.3249 75.8979 56.1733 75.1745 56.1733ZM72.7945 42.5933H77.4845V48.2633H72.7945V42.5933ZM101.632 50.7833H124.102V54.4933H101.632V50.7833ZM98.0268 57.8533H127.357V61.5633H98.0268V57.8533ZM101.632 43.1883H106.287V52.6383H101.632V43.1883ZM101.352 70.0333H124.277V73.7783H101.352V70.0333ZM101.352 64.1183H106.007V71.0483H101.352V64.1183ZM145.605 44.5533H149.35V49.2433C149.35 51.2499 149.175 53.2099 148.825 55.1233C148.475 57.0133 147.926 58.7749 147.18 60.4083C146.456 62.0416 145.535 63.4999 144.415 64.7833C143.295 66.0433 141.976 67.0466 140.46 67.7933L137.66 64.0483C139.036 63.4183 140.215 62.5783 141.195 61.5283C142.198 60.4783 143.026 59.2883 143.68 57.9583C144.333 56.6283 144.811 55.2283 145.115 53.7583C145.441 52.2649 145.605 50.7599 145.605 49.2433V44.5533ZM146.515 44.5533H150.26V49.2433C150.26 50.7133 150.4 52.1599 150.68 53.5833C150.983 55.0066 151.438 56.3599 152.045 57.6433C152.675 58.9033 153.456 60.0349 154.39 61.0383C155.323 62.0416 156.443 62.8699 157.75 63.5233L154.915 67.2333C153.468 66.4866 152.208 65.5066 151.135 64.2933C150.085 63.0566 149.221 61.6449 148.545 60.0583C147.868 58.4483 147.355 56.7333 147.005 54.9133C146.678 53.0699 146.515 51.1799 146.515 49.2433V44.5533ZM159.01 42.0683H163.7V74.4783H159.01V42.0683ZM162.685 54.5283H168.39V58.3783H162.685V54.5283ZM191.347 42.0683H196.002V61.3183H191.347V42.0683ZM194.707 49.6983H200.307V53.5133H194.707V49.6983ZM174.932 62.7183H196.002V74.1283H174.932V62.7183ZM191.487 66.3233H179.517V70.4533H191.487V66.3233ZM171.677 56.4183H174.407C176.53 56.4183 178.42 56.3949 180.077 56.3483C181.757 56.3016 183.309 56.2083 184.732 56.0683C186.179 55.9283 187.649 55.7183 189.142 55.4383L189.562 59.1483C188.069 59.4283 186.564 59.6499 185.047 59.8133C183.554 59.9533 181.944 60.0466 180.217 60.0933C178.514 60.1399 176.577 60.1633 174.407 60.1633H171.677V56.4183ZM171.607 43.6783H186.412V53.5483H176.262V58.4833H171.677V50.0833H181.827V47.3533H171.607V43.6783ZM202.754 54.5983H232.049V58.2733H202.754V54.5983ZM206.359 49.2083H228.584V52.8833H206.359V49.2083ZM206.359 42.6633H228.304V46.3383H210.979V52.3933H206.359V42.6633ZM206.044 60.0933H228.444V68.7033H210.699V71.4683H206.079V65.4133H223.859V63.6283H206.044V60.0933ZM206.079 70.6283H229.319V74.1983H206.079V70.6283ZM249.581 42.4883C253.268 42.4883 256.138 42.9666 258.191 43.9233C260.268 44.8799 261.306 46.2566 261.306 48.0533C261.306 49.8266 260.268 51.1916 258.191 52.1483C256.138 53.1049 253.268 53.5833 249.581 53.5833C245.871 53.5833 242.978 53.1049 240.901 52.1483C238.848 51.1916 237.821 49.8266 237.821 48.0533C237.821 46.2566 238.848 44.8799 240.901 43.9233C242.978 42.9666 245.871 42.4883 249.581 42.4883ZM249.546 45.9183C248.006 45.9183 246.723 45.9999 245.696 46.1633C244.67 46.3033 243.9 46.5366 243.386 46.8633C242.896 47.1666 242.651 47.5633 242.651 48.0533C242.651 48.5433 242.896 48.9516 243.386 49.2783C243.9 49.5816 244.67 49.8033 245.696 49.9433C246.723 50.0833 248.006 50.1533 249.546 50.1533C251.11 50.1533 252.405 50.0833 253.431 49.9433C254.458 49.8033 255.216 49.5816 255.706 49.2783C256.196 48.9516 256.441 48.5433 256.441 48.0533C256.441 47.5633 256.196 47.1666 255.706 46.8633C255.216 46.5366 254.458 46.3033 253.431 46.1633C252.405 45.9999 251.11 45.9183 249.546 45.9183ZM234.881 55.0883H264.211V58.7633H234.881V55.0883ZM238.241 60.5833H260.641V68.8783H242.896V71.7483H238.276V65.6583H256.056V64.0133H238.241V60.5833ZM238.276 70.7333H261.516V74.2683H238.276V70.7333ZM22.12 83.9983H26.81V116.513H22.12V83.9983ZM25.795 96.0033H31.5V99.8533H25.795V96.0033ZM2.66 104.893H5.39C7.23333 104.893 8.96 104.87 10.57 104.823C12.18 104.753 13.7433 104.648 15.26 104.508C16.7767 104.345 18.3283 104.123 19.915 103.843L20.37 107.693C18.7367 107.973 17.1267 108.195 15.54 108.358C13.9767 108.522 12.3667 108.627 10.71 108.673C9.05333 108.72 7.28 108.743 5.39 108.743H2.66V104.893ZM2.66 87.0083H17.78V90.7533H7.315V106.713H2.66V87.0083ZM41.5073 86.5533H45.3223V91.2433C45.3223 93.3433 45.1356 95.3616 44.7623 97.2983C44.3889 99.2116 43.8173 101.008 43.0473 102.688C42.3006 104.345 41.3323 105.815 40.1423 107.098C38.9756 108.358 37.5873 109.362 35.9773 110.108L33.2123 106.258C34.6356 105.628 35.8606 104.8 36.8873 103.773C37.9373 102.723 38.8006 101.533 39.4773 100.203C40.1539 98.8499 40.6556 97.4149 40.9823 95.8983C41.3323 94.3816 41.5073 92.8299 41.5073 91.2433V86.5533ZM42.4173 86.5533H46.1973V91.2433C46.1973 92.7599 46.3606 94.2416 46.6873 95.6883C47.0139 97.1349 47.5039 98.4999 48.1573 99.7833C48.8339 101.067 49.6739 102.21 50.6773 103.213C51.7039 104.193 52.9056 104.975 54.2823 105.558L51.5873 109.338C50.0239 108.615 48.6589 107.647 47.4923 106.433C46.3489 105.22 45.4039 103.82 44.6573 102.233C43.9106 100.623 43.3506 98.8966 42.9773 97.0533C42.6039 95.1866 42.4173 93.2499 42.4173 91.2433V86.5533ZM55.8573 83.9983H60.5123V116.513H55.8573V83.9983ZM94.6151 83.9983H99.3051V116.408H94.6151V83.9983ZM98.1151 96.4233H103.82V100.238H98.1151V96.4233ZM86.1101 87.3583H90.6951C90.6951 90.6016 90.2285 93.6699 89.2951 96.5633C88.3851 99.4566 86.8685 102.117 84.7451 104.543C82.6451 106.947 79.7985 109.047 76.2051 110.843L73.5801 107.308C76.4268 105.838 78.7718 104.182 80.6151 102.338C82.4818 100.495 83.8585 98.4066 84.7451 96.0733C85.6551 93.7166 86.1101 91.0916 86.1101 88.1983V87.3583ZM75.3651 87.3583H88.5251V91.1033H75.3651V87.3583ZM117.572 87.0433H121.702V87.8133C121.702 88.8166 121.527 89.7733 121.177 90.6833C120.827 91.5699 120.302 92.4099 119.602 93.2033C118.926 93.9733 118.074 94.6616 117.047 95.2683C116.021 95.8749 114.831 96.3883 113.477 96.8083C112.147 97.2049 110.654 97.4849 108.997 97.6483L107.352 94.0083C108.752 93.8683 110.001 93.6583 111.097 93.3783C112.217 93.0749 113.186 92.7133 114.002 92.2933C114.819 91.8733 115.484 91.4183 115.997 90.9283C116.534 90.4383 116.931 89.9249 117.187 89.3883C117.444 88.8516 117.572 88.3266 117.572 87.8133V87.0433ZM119.847 87.0433H123.942V87.8133C123.942 88.3499 124.071 88.8866 124.327 89.4233C124.607 89.9366 125.004 90.4499 125.517 90.9633C126.031 91.4533 126.684 91.9083 127.477 92.3283C128.294 92.7249 129.251 93.0749 130.347 93.3783C131.467 93.6583 132.739 93.8683 134.162 94.0083L132.552 97.6483C130.872 97.4849 129.356 97.2049 128.002 96.8083C126.672 96.3883 125.494 95.8749 124.467 95.2683C123.464 94.6616 122.612 93.9733 121.912 93.2033C121.236 92.4333 120.722 91.5933 120.372 90.6833C120.022 89.7733 119.847 88.8166 119.847 87.8133V87.0433ZM108.787 85.2583H132.797V88.8983H108.787V85.2583ZM106.092 99.8183H135.457V103.528H106.092V99.8183ZM118.377 95.6533H123.032V101.463H118.377V95.6533ZM109.347 105.838H131.887V116.478H127.232V109.513H109.347V105.838ZM148.755 86.2033C150.435 86.2033 151.951 86.5416 153.305 87.2183C154.658 87.8949 155.72 88.8399 156.49 90.0533C157.26 91.2433 157.645 92.6199 157.645 94.1833C157.645 95.7233 157.26 97.0999 156.49 98.3133C155.72 99.5266 154.658 100.472 153.305 101.148C151.951 101.825 150.435 102.163 148.755 102.163C147.051 102.163 145.523 101.825 144.17 101.148C142.816 100.472 141.743 99.5266 140.95 98.3133C140.18 97.0999 139.795 95.7233 139.795 94.1833C139.795 92.6199 140.18 91.2433 140.95 90.0533C141.743 88.8399 142.816 87.8949 144.17 87.2183C145.523 86.5416 147.051 86.2033 148.755 86.2033ZM148.755 90.1933C147.915 90.1933 147.156 90.3566 146.48 90.6833C145.826 90.9866 145.301 91.4416 144.905 92.0483C144.531 92.6316 144.345 93.3433 144.345 94.1833C144.345 95.0233 144.531 95.7466 144.905 96.3533C145.301 96.9599 145.826 97.4266 146.48 97.7533C147.156 98.0566 147.915 98.2083 148.755 98.2083C149.571 98.2083 150.306 98.0566 150.96 97.7533C151.613 97.4266 152.126 96.9599 152.5 96.3533C152.896 95.7466 153.095 95.0233 153.095 94.1833C153.095 93.3433 152.896 92.6316 152.5 92.0483C152.126 91.4416 151.613 90.9866 150.96 90.6833C150.306 90.3566 149.571 90.1933 148.755 90.1933ZM160.69 83.9983H165.345V116.513H160.69V83.9983ZM138.99 109.968L138.465 106.188C140.355 106.188 142.443 106.177 144.73 106.153C147.04 106.107 149.408 106.013 151.835 105.873C154.285 105.71 156.653 105.465 158.94 105.138L159.255 108.498C156.921 108.965 154.553 109.303 152.15 109.513C149.746 109.7 147.425 109.828 145.185 109.898C142.945 109.945 140.88 109.968 138.99 109.968Z" fill="#EEF1F6"/>
<defs>
<linearGradient id="paint0_linear_1473_16" x1="325.73" y1="91.8624" x2="288.397" y2="124.959" gradientUnits="userSpaceOnUse">
<stop stop-color="#1D70D5"/>
<stop offset="1" stop-color="#00FFE3"/>
</linearGradient>
</defs>
</svg>
