<svg width="506" height="595" viewBox="0 0 506 595" fill="none" xmlns="http://www.w3.org/2000/svg">
<path d="M450.532 397.336C424.203 424.668 386.659 461.73 356.724 486.068L273.265 392.518C288.119 379.666 321.632 343.596 336.488 326.587C376.897 277.451 366.796 218.84 326.083 174.971C277.137 138.405 225.388 140.056 176.957 179.728C129.097 224.145 137.903 291.4 177.833 334.426L336.488 510.168L287.512 564.33L260.017 594.133L148.203 503.168L71.6132 429.465C-26.7442 318.498 -22.656 171.908 76.922 70.7426C185.388 -31.265 349.428 -20.9085 442.237 88.5967C528.877 196.628 522.203 322.934 450.532 397.336Z" fill="url(#paint0_linear_1884_16)"/>
<defs>
<linearGradient id="paint0_linear_1884_16" x1="242.238" y1="610.633" x2="349.283" y2="-88.9046" gradientUnits="userSpaceOnUse">
<stop stop-color="#FF7700"/>
<stop offset="1" stop-color="#FFE387"/>
</linearGradient>
</defs>
</svg>
