<svg width="127" height="149" viewBox="0 0 127 149" fill="none" xmlns="http://www.w3.org/2000/svg">
<path d="M17.9307 107.278L37.038 125.665L37.0413 125.668L64.9365 148.362L64.9728 148.391L65.0051 148.357L71.8645 140.921L84.0828 127.409L84.1131 127.376L84.0832 127.342L44.5024 83.4985L44.5017 83.4977C34.5535 72.7783 32.3656 56.0317 44.2801 44.9744C50.3141 40.0324 56.5516 37.4615 62.8017 37.2621C69.0522 37.0627 75.3206 39.2364 81.4186 43.7917C86.4878 49.2562 89.6499 55.6355 90.2879 62.1762C90.9259 68.7178 89.0398 75.4241 84.0081 81.5431L83.2612 82.3922C79.2754 86.8885 71.712 94.9833 68.2405 97.9869L68.202 98.02L68.2358 98.0579L89.0572 121.396L89.0891 121.432L89.1261 121.402C96.5965 115.328 105.965 106.08 112.534 99.2611C130.434 80.6782 132.095 49.1391 110.467 22.1717L110.466 22.1703C87.4743 -4.95705 46.9751 -7.71389 19.8929 17.1203L19.2537 17.7135C-5.60744 42.9712 -6.62675 79.5719 17.928 107.275L17.9307 107.278Z" fill="url(#paint0_linear_278_451)" stroke="white" stroke-width="0.1"/>
<defs>
<linearGradient id="paint0_linear_278_451" x1="106.262" y1="110" x2="20.0182" y2="17.0707" gradientUnits="userSpaceOnUse">
<stop offset="0.971154" stop-color="#E89A59"/>
</linearGradient>
</defs>
</svg>
